HIERARCHY
ROOT Hips
{
 OFFSET 0.000000 0.000000 0.000000
 CHANNELS 6 Xposition Yposition Zposition Yrotation Xrotation Zrotation
 JOINT Chest
 {
  OFFSET 0.000000 9.588913 -0.003946
  CHANNELS 3 Yrotation Xrotation Zrotation
  JOINT Chest2
  {
   OFFSET 0.000000 9.541882 0.008053
   CHANNELS 3 Yrotation Xrotation Zrotation
   JOINT Chest3
   {
    OFFSET 0.000000 9.501360 0.000000
    CHANNELS 3 Yrotation Xrotation Zrotation
    JOINT Chest4
    {
     OFFSET 0.000000 9.491660 0.000000
     CHANNELS 3 Yrotation Xrotation Zrotation
     JOINT Neck
     {
      OFFSET 0.000000 14.331917 0.000000
      CHANNELS 3 Yrotation Xrotation Zrotation
      JOINT Head
      {
       OFFSET 0.000000 8.884799 0.017034
       CHANNELS 3 Yrotation Xrotation Zrotation
       End Site
       {
        OFFSET 0.000000 16.896195 0.008993
       }
      }
     }
     JOINT RightCollar
     {
      OFFSET -2.923010 9.499495 0.000000
      CHANNELS 3 Yrotation Xrotation Zrotation
      JOINT RightShoulder
      {
       OFFSET -13.795216 0.000000 0.000000
       CHANNELS 3 Yrotation Xrotation Zrotation
       JOINT RightElbow
       {
        OFFSET -30.272209 0.000000 0.000000
        CHANNELS 3 Yrotation Xrotation Zrotation
        JOINT RightWrist
        {
         OFFSET -24.478199 0.000000 0.000000
         CHANNELS 3 Yrotation Xrotation Zrotation
         End Site
         {
          OFFSET -18.090752 0.000000 0.000000
         }
        }
       }
      }
     }
     JOINT LeftCollar
     {
      OFFSET 2.923010 9.499495 0.000000
      CHANNELS 3 Yrotation Xrotation Zrotation
      JOINT LeftShoulder
      {
       OFFSET 13.795216 0.000000 0.000000
       CHANNELS 3 Yrotation Xrotation Zrotation
       JOINT LeftElbow
       {
        OFFSET 30.272209 0.000000 0.000000
        CHANNELS 3 Yrotation Xrotation Zrotation
        JOINT LeftWrist
        {
         OFFSET 24.478199 0.000000 0.000000
         CHANNELS 3 Yrotation Xrotation Zrotation
         End Site
         {
          OFFSET 18.090752 0.000000 0.000000
         }
        }
       }
      }
     }
    }
   }
  }
 }
 JOINT RightHip
 {
  OFFSET -7.826875 0.019532 0.001973
  CHANNELS 3 Yrotation Xrotation Zrotation
  JOINT RightKnee
  {
   OFFSET 0.000000 -40.546152 -0.001885
   CHANNELS 3 Yrotation Xrotation Zrotation
   JOINT RightAnkle
   {
    OFFSET 0.000000 -39.417092 -0.003189
    CHANNELS 3 Yrotation Xrotation Zrotation
    JOINT RightToe
    {
     OFFSET 0.000000 -7.579396 17.243563
     CHANNELS 3 Yrotation Xrotation Zrotation
     End Site
     {
      OFFSET 0.000000 -1.500329 6.694466
     }
    }
   }
  }
 }
 JOINT LeftHip
 {
  OFFSET 7.826875 0.019532 0.001973
  CHANNELS 3 Yrotation Xrotation Zrotation
  JOINT LeftKnee
  {
   OFFSET 0.000000 -40.546152 -0.001885
   CHANNELS 3 Yrotation Xrotation Zrotation
   JOINT LeftAnkle
   {
    OFFSET 0.000000 -39.417092 -0.003189
    CHANNELS 3 Yrotation Xrotation Zrotation
    JOINT LeftToe
    {
     OFFSET 0.000000 -7.579396 17.243563
     CHANNELS 3 Yrotation Xrotation Zrotation
     End Site
     {
      OFFSET 0.000000 -1.500329 6.694466
     }
    }
   }
  }
 }
}
MOTION
Frames: 11
Frame Time: 0.008333
0.000000 87.345680 0.000000 0.000000 -5.767889 0.000000 0.000000 11.653876 0.000000 0.000000 -5.885988 0.000000 0.000000 -0.000000 0.000000 0.000000 -0.000000 0.000000 0.000000 12.528808 0.000000 0.000000 0.711711 0.000000 0.000000 -0.000000 0.000000 0.000000 -0.000000 0.000000 2.309063 -0.000000 0.000000 -2.309063 -0.000000 -0.000000 0.000000 -0.000000 0.000000 0.000000 0.000000 0.000000 -2.309063 0.000000 0.000000 2.309063 -0.000000 0.000000 0.000000 8.520374 0.000000 0.000000 1.905768 0.000000 -0.000000 -4.658254 0.000000 0.000000 -0.000000 0.000000 0.000000 8.520374 0.000000 0.000000 1.905768 0.000000 -0.000000 -4.658254 0.000000 0.000000 -0.000000 0.000000
5.820834 88.396309 -7.062420 118.681743 -5.078028 3.606229 0.375827 3.807135 1.902504 0.135006 2.054562 0.567508 0.171968 2.567986 0.710256 0.135006 2.054563 0.567508 -26.345295 24.174620 -0.029315 -32.741649 4.300748 5.952070 -5.238037 1.879706 -5.144222 -4.635806 -1.413615 87.554996 7.195602 1.313898 0.631027 -2.152331 -4.128619 1.841011 -8.029178 1.436960 -1.023709 10.515962 -3.447043 -91.710619 -4.057822 1.876832 -1.494515 -2.643325 3.940975 -1.879595 -12.784784 8.163759 -2.999930 -6.956102 -1.218526 0.908377 5.043439 -4.308945 -3.601555 0.029366 1.206840 0.007158 -0.845949 3.149010 6.927986 5.882459 12.999108 3.764823 3.948990 -4.475840 -13.354108 -0.463774 -1.122635 -0.191915
5.829086 88.394634 -7.063937 118.748031 -5.074543 3.607682 0.382841 3.813289 1.905459 0.136705 2.054080 0.566264 0.174083 2.567380 0.708710 0.136705 2.054080 0.566264 -26.336165 24.176683 -0.024315 -32.729602 4.301642 5.956196 -5.209396 1.849223 -5.126268 -4.648050 -1.473242 87.456294 7.322966 1.297475 0.666022 -2.125162 -4.137283 1.822232 -8.025439 1.446605 -1.026531 10.548661 -3.460064 -91.664059 -4.093327 1.887067 -1.509085 -2.651324 3.945501 -1.844297 -12.808258 8.173847 -2.999902 -6.975677 -1.225054 0.908463 5.028645 -4.319873 -3.596283 0.029576 1.212241 0.004696 -0.864796 3.145426 6.926359 5.877830 12.976951 3.762545 3.929086 -4.472972 -13.344687 -0.467027 -1.112008 -0.197164
5.838138 88.392610 -7.065327 118.822864 -5.067402 3.609369 0.386256 3.815237 1.907147 0.137726 2.053245 0.564977 0.175351 2.566336 0.707107 0.137726 2.053245 0.564977 -26.326642 24.180221 -0.020599 -32.716552 4.304190 5.958562 -5.180952 1.821418 -5.110313 -4.663024 -1.529427 87.365352 7.441710 1.283703 0.693719 -2.093949 -4.143211 1.802672 -8.023526 1.457552 -1.026217 10.576640 -3.473328 -91.621934 -4.128520 1.896080 -1.517680 -2.663223 3.949086 -1.800594 -12.831499 8.182459 -2.998927 -6.996420 -1.233156 0.910051 5.008110 -4.331685 -3.594176 0.029650 1.217940 0.004240 -0.887643 3.136943 6.925190 5.868457 12.954350 3.757918 3.912808 -4.470172 -13.335373 -0.472276 -1.103449 -0.201033
5.847830 88.390377 -7.066749 118.906372 -5.058646 3.612050 0.387525 3.814954 1.907900 0.138590 2.052660 0.563641 0.176423 2.565604 0.705441 0.138590 2.052660 0.563641 -26.318040 24.185039 -0.016828 -32.704875 4.308702 5.961096 -5.158095 1.792590 -5.097656 -4.674986 -1.581656 87.282409 7.550229 1.266495 0.715241 -2.061028 -4.151201 1.781230 -8.022580 1.467907 -1.022770 10.595170 -3.485825 -91.584130 -4.163713 1.897508 -1.519650 -2.673489 3.949386 -1.758422 -12.853419 8.191090 -2.997805 -7.021000 -1.242353 0.912244 4.983280 -4.344525 -3.595194 0.029629 1.224013 0.005879 -0.913065 3.126632 6.923596 5.853294 12.928514 3.752053 3.896505 -4.466178 -13.325968 -0.476551 -1.096686 -0.204350
5.858450 88.388097 -7.068122 118.996475 -5.051479 3.614321 0.388715 3.814855 1.908974 0.139326 2.052146 0.562538 0.177336 2.564961 0.704065 0.139326 2.052146 0.562538 -26.310433 24.191186 -0.011903 -32.695028 4.315428 5.965166 -5.142754 1.762661 -5.089378 -4.680051 -1.630085 87.208894 7.647061 1.242218 0.729189 -2.029313 -4.159795 1.760142 -8.021714 1.477207 -1.017491 10.604868 -3.496307 -91.550476 -4.194850 1.888893 -1.515454 -2.681675 3.947488 -1.723108 -12.875347 8.202663 -2.997759 -7.049683 -1.251571 0.917483 4.958686 -4.357665 -3.598115 0.029954 1.229611 0.007509 -0.938251 3.116174 6.922935 5.834210 12.903179 3.746842 3.877198 -4.462544 -13.317023 -0.479672 -1.091706 -0.207476
5.870019 88.385905 -7.069182 119.088591 -5.046277 3.615045 0.392072 3.816081 1.911037 0.140241 2.051485 0.561462 0.178473 2.564133 0.702725 0.140241 2.051485 0.561462 -26.302697 24.199074 -0.004993 -32.685592 4.324720 5.971531 -5.129268 1.731707 -5.081742 -4.685860 -1.673333 87.142471 7.735742 1.215892 0.736495 -2.003585 -4.168420 1.742385 -8.022310 1.483953 -1.011585 10.615108 -3.505800 -91.519007 -4.215294 1.874525 -1.508436 -2.690541 3.945362 -1.694152 -12.897984 8.217980 -2.997621 -7.077718 -1.262304 0.924976 4.934638 -4.369145 -3.601209 0.030598 1.233903 0.008081 -0.959969 3.105725 6.925295 5.816199 12.880499 3.742869 3.850750 -4.460189 -13.310131 -0.480358 -1.088596 -0.209302
5.882392 88.383932 -7.069946 119.179537 -5.042687 3.615005 0.398202 3.819104 1.912911 0.141596 2.050965 0.560088 0.180158 2.563481 0.701015 0.141596 2.050965 0.560088 -26.294004 24.209050 0.003232 -32.675123 4.336705 5.979174 -5.114644 1.698438 -5.070107 -4.696632 -1.713042 87.078699 7.813457 1.191462 0.741689 -1.981588 -4.180265 1.724334 -8.024145 1.487429 -1.006197 10.631969 -3.515732 -91.488164 -4.225937 1.858029 -1.499331 -2.700895 3.943019 -1.672107 -12.921617 8.235922 -2.995959 -7.102789 -1.274575 0.930702 4.909851 -4.378839 -3.602755 0.030835 1.236784 0.007781 -0.975664 3.095893 6.931207 5.801070 12.859616 3.737167 3.817160 -4.458528 -13.302613 -0.479289 -1.086964 -0.210517
5.895310 88.382293 -7.070612 119.269387 -5.040026 3.615868 0.405413 3.822252 1.914209 0.143493 2.050484 0.558787 0.182522 2.562879 0.699399 0.143493 2.050484 0.558787 -26.285620 24.220734 0.009703 -32.664548 4.350781 5.984607 -5.098868 1.666407 -5.057083 -4.711932 -1.752274 87.016399 7.876693 1.168649 0.747279 -1.957661 -4.196153 1.705504 -8.026454 1.490795 -1.003486 10.656925 -3.526398 -91.457854 -4.231781 1.838333 -1.489322 -2.709087 3.939658 -1.655636 -12.949212 8.253881 -2.994221 -7.125998 -1.285789 0.933855 4.886445 -4.388407 -3.603315 0.030825 1.238742 0.007432 -0.985085 3.085137 6.938235 5.785770 12.841548 3.728885 3.781617 -4.456396 -13.291981 -0.479646 -1.087243 -0.212612
5.908483 88.381046 -7.071279 119.360844 -5.037080 3.618357 0.411709 3.824144 1.915253 0.145623 2.049889 0.557717 0.185178 2.562132 0.698072 0.145623 2.049889 0.557717 -26.278409 24.233675 0.013378 -32.654830 4.366443 5.986757 -5.081070 1.640598 -5.046278 -4.733075 -1.792423 86.957245 7.929113 1.146191 0.751334 -1.935579 -4.212480 1.690735 -8.028565 1.494827 -1.003445 10.690347 -3.537214 -91.428376 -4.233686 1.815712 -1.482208 -2.708400 3.935960 -1.643117 -12.985960 8.269391 -2.993199 -7.148308 -1.294279 0.933383 4.867739 -4.399002 -3.602103 0.031301 1.240054 0.007084 -0.990359 3.072923 6.943566 5.769797 12.823093 3.721362 3.744534 -4.451415 -13.280959 -0.480824 -1.089215 -0.214497
5.926899 88.380466 -7.072231 119.430651 -5.059121 3.610547 0.440257 3.852283 1.929277 0.148032 2.049337 0.556820 0.188184 2.561439 0.696965 0.148032 2.049338 0.556820 -26.272679 24.246816 0.015893 -32.646953 4.382617 5.987774 -5.063548 1.620603 -5.038081 -4.758453 -1.834133 86.902854 7.971061 1.122393 0.751805 -1.918836 -4.224594 1.681279 -8.029124 1.499696 -1.004134 10.727538 -3.549235 -91.399885 -4.231648 1.790669 -1.477838 -2.696329 3.935110 -1.634074 -13.009954 8.314499 -2.983381 -7.170540 -1.302348 0.928667 4.854717 -4.417351 -3.599333 0.032061 1.246779 0.006171 -0.969820 3.088423 6.960064 5.754148 12.799917 3.716563 3.718052 -4.423352 -13.265520 -0.497549 -1.107272 -0.222618
